<?xml version='1.0' encoding='utf-8'?>
<svg xmlns="http://www.w3.org/2000/svg" width="72" height="72" viewBox="0 0 512 512">
  <defs>
    <linearGradient id="bg" x1="0%" y1="0%" x2="100%" y2="100%">
      <stop offset="0%" style="stop-color:#5D5CDE" />
      <stop offset="100%" style="stop-color:#4a49b8" />
    </linearGradient>
    <linearGradient id="flame" x1="0%" y1="100%" x2="0%" y2="0%">
      <stop offset="0%" style="stop-color:#ff6b35" />
      <stop offset="50%" style="stop-color:#f7931e" />
      <stop offset="100%" style="stop-color:#ffd700" />
    </linearGradient>
  </defs>

  
  <rect x="20" y="20" width="472" height="472" rx="80" fill="url(#bg)" />

  
  <path d="M256 380            C200 380 160 330 160 280            C160 220 200 180 230 150            C240 140 250 125 250 110            C250 125 280 150 300 180            C290 170 275 175 275 200            C275 225 295 240 295 240            C310 220 330 230 340 260            C350 290 340 330 300 360            C280 375 268 380 256 380Z" fill="url(#flame)" />

  
  <text x="256" y="460" font-family="Arial, sans-serif" font-size="80" font-weight="bold" fill="white" text-anchor="middle">SSI</text>

  
  <circle cx="400" cy="120" r="50" fill="#27ae60" />
  <path d="M380 120 L395 135 L420 105" stroke="white" stroke-width="10" stroke-linecap="round" stroke-linejoin="round" fill="none" />
</svg>troke="white"
        stroke-width="10"
        stroke-linecap="round"
        stroke-linejoin="round"
        fill="none"/>
</svg>
